<mxfile host="65bd71144e">
    <diagram id="WBzpQqD0giaPxHZME1Q3" name="Version2">
        <mxGraphModel dx="1702" dy="1012" grid="1" gridSize="10" guides="1" tooltips="1" connect="1" arrows="1" fold="1" page="1" pageScale="1" pageWidth="827" pageHeight="1169" math="0" shadow="0">
            <root>
                <mxCell id="rhlbqimN3HDKiPcZjt1G-0"/>
                <mxCell id="rhlbqimN3HDKiPcZjt1G-1" parent="rhlbqimN3HDKiPcZjt1G-0"/>
                <mxCell id="tRXYYjkocbcyxQh3FJ96-0" value="Image" style="swimlane;fontStyle=1;align=center;verticalAlign=top;childLayout=stackLayout;horizontal=1;startSize=26;horizontalStack=0;resizeParent=1;resizeParentMax=0;resizeLast=0;collapsible=1;marginBottom=0;" parent="rhlbqimN3HDKiPcZjt1G-1" vertex="1">
                    <mxGeometry x="400.64" y="40" width="160" height="140" as="geometry"/>
                </mxCell>
                <mxCell id="tRXYYjkocbcyxQh3FJ96-1" value="+ field: type" style="text;strokeColor=none;fillColor=none;align=left;verticalAlign=top;spacingLeft=4;spacingRight=4;overflow=hidden;rotatable=0;points=[[0,0.5],[1,0.5]];portConstraint=eastwest;" parent="tRXYYjkocbcyxQh3FJ96-0" vertex="1">
                    <mxGeometry y="26" width="160" height="26" as="geometry"/>
                </mxCell>
                <mxCell id="tRXYYjkocbcyxQh3FJ96-2" value="" style="line;strokeWidth=1;fillColor=none;align=left;verticalAlign=middle;spacingTop=-1;spacingLeft=3;spacingRight=3;rotatable=0;labelPosition=right;points=[];portConstraint=eastwest;" parent="tRXYYjkocbcyxQh3FJ96-0" vertex="1">
                    <mxGeometry y="52" width="160" height="8" as="geometry"/>
                </mxCell>
                <mxCell id="tRXYYjkocbcyxQh3FJ96-3" value="teaser()&#10;info()&#10;data()" style="text;strokeColor=none;fillColor=none;align=left;verticalAlign=top;spacingLeft=4;spacingRight=4;overflow=hidden;rotatable=0;points=[[0,0.5],[1,0.5]];portConstraint=eastwest;" parent="tRXYYjkocbcyxQh3FJ96-0" vertex="1">
                    <mxGeometry y="60" width="160" height="80" as="geometry"/>
                </mxCell>
                <mxCell id="tRXYYjkocbcyxQh3FJ96-4" value="Text" style="swimlane;fontStyle=1;align=center;verticalAlign=top;childLayout=stackLayout;horizontal=1;startSize=26;horizontalStack=0;resizeParent=1;resizeParentMax=0;resizeLast=0;collapsible=1;marginBottom=0;" parent="rhlbqimN3HDKiPcZjt1G-1" vertex="1">
                    <mxGeometry x="400.64" y="520" width="160" height="140" as="geometry"/>
                </mxCell>
                <mxCell id="tRXYYjkocbcyxQh3FJ96-5" value="+ field: type" style="text;strokeColor=none;fillColor=none;align=left;verticalAlign=top;spacingLeft=4;spacingRight=4;overflow=hidden;rotatable=0;points=[[0,0.5],[1,0.5]];portConstraint=eastwest;" parent="tRXYYjkocbcyxQh3FJ96-4" vertex="1">
                    <mxGeometry y="26" width="160" height="26" as="geometry"/>
                </mxCell>
                <mxCell id="tRXYYjkocbcyxQh3FJ96-6" value="" style="line;strokeWidth=1;fillColor=none;align=left;verticalAlign=middle;spacingTop=-1;spacingLeft=3;spacingRight=3;rotatable=0;labelPosition=right;points=[];portConstraint=eastwest;" parent="tRXYYjkocbcyxQh3FJ96-4" vertex="1">
                    <mxGeometry y="52" width="160" height="8" as="geometry"/>
                </mxCell>
                <mxCell id="tRXYYjkocbcyxQh3FJ96-7" value="teaser()&#10;info()&#10;data()" style="text;strokeColor=none;fillColor=none;align=left;verticalAlign=top;spacingLeft=4;spacingRight=4;overflow=hidden;rotatable=0;points=[[0,0.5],[1,0.5]];portConstraint=eastwest;" parent="tRXYYjkocbcyxQh3FJ96-4" vertex="1">
                    <mxGeometry y="60" width="160" height="80" as="geometry"/>
                </mxCell>
                <mxCell id="tRXYYjkocbcyxQh3FJ96-8" value="Button" style="swimlane;fontStyle=1;align=center;verticalAlign=top;childLayout=stackLayout;horizontal=1;startSize=26;horizontalStack=0;resizeParent=1;resizeParentMax=0;resizeLast=0;collapsible=1;marginBottom=0;" parent="rhlbqimN3HDKiPcZjt1G-1" vertex="1">
                    <mxGeometry x="400.64" y="680" width="160" height="200" as="geometry"/>
                </mxCell>
                <mxCell id="tRXYYjkocbcyxQh3FJ96-9" value="+ field: type" style="text;strokeColor=none;fillColor=none;align=left;verticalAlign=top;spacingLeft=4;spacingRight=4;overflow=hidden;rotatable=0;points=[[0,0.5],[1,0.5]];portConstraint=eastwest;" parent="tRXYYjkocbcyxQh3FJ96-8" vertex="1">
                    <mxGeometry y="26" width="160" height="26" as="geometry"/>
                </mxCell>
                <mxCell id="tRXYYjkocbcyxQh3FJ96-10" value="" style="line;strokeWidth=1;fillColor=none;align=left;verticalAlign=middle;spacingTop=-1;spacingLeft=3;spacingRight=3;rotatable=0;labelPosition=right;points=[];portConstraint=eastwest;" parent="tRXYYjkocbcyxQh3FJ96-8" vertex="1">
                    <mxGeometry y="52" width="160" height="8" as="geometry"/>
                </mxCell>
                <mxCell id="tRXYYjkocbcyxQh3FJ96-11" value="iconActive()&#10;iconInactive()&#10;mainActive()&#10;mainInactive()&#10;textActive()&#10;textInactive()&#10;slideBar()&#10;boxSlider()" style="text;strokeColor=none;fillColor=none;align=left;verticalAlign=top;spacingLeft=4;spacingRight=4;overflow=hidden;rotatable=0;points=[[0,0.5],[1,0.5]];portConstraint=eastwest;" parent="tRXYYjkocbcyxQh3FJ96-8" vertex="1">
                    <mxGeometry y="60" width="160" height="140" as="geometry"/>
                </mxCell>
                <mxCell id="QToW42FV7lgDJAnpMxoy-0" value="Screen" style="swimlane;fontStyle=1;align=center;verticalAlign=top;childLayout=stackLayout;horizontal=1;startSize=26;horizontalStack=0;resizeParent=1;resizeParentMax=0;resizeLast=0;collapsible=1;marginBottom=0;" parent="rhlbqimN3HDKiPcZjt1G-1" vertex="1">
                    <mxGeometry x="40.639999999999986" y="320" width="160" height="200" as="geometry">
                        <mxRectangle x="280" y="40" width="80" height="26" as="alternateBounds"/>
                    </mxGeometry>
                </mxCell>
                <mxCell id="QToW42FV7lgDJAnpMxoy-1" value="+ field: type" style="text;strokeColor=none;fillColor=none;align=left;verticalAlign=top;spacingLeft=4;spacingRight=4;overflow=hidden;rotatable=0;points=[[0,0.5],[1,0.5]];portConstraint=eastwest;" parent="QToW42FV7lgDJAnpMxoy-0" vertex="1">
                    <mxGeometry y="26" width="160" height="26" as="geometry"/>
                </mxCell>
                <mxCell id="QToW42FV7lgDJAnpMxoy-2" value="" style="line;strokeWidth=1;fillColor=none;align=left;verticalAlign=middle;spacingTop=-1;spacingLeft=3;spacingRight=3;rotatable=0;labelPosition=right;points=[];portConstraint=eastwest;" parent="QToW42FV7lgDJAnpMxoy-0" vertex="1">
                    <mxGeometry y="52" width="160" height="8" as="geometry"/>
                </mxCell>
                <mxCell id="QToW42FV7lgDJAnpMxoy-3" value="map()&#10;menu()&#10;artifactList()&#10;artifactStart()&#10;artifactTask()&#10;artifactInput()&#10;artifactResults()&#10;artifactProgress()" style="text;strokeColor=none;fillColor=none;align=left;verticalAlign=top;spacingLeft=4;spacingRight=4;overflow=hidden;rotatable=0;points=[[0,0.5],[1,0.5]];portConstraint=eastwest;" parent="QToW42FV7lgDJAnpMxoy-0" vertex="1">
                    <mxGeometry y="60" width="160" height="140" as="geometry"/>
                </mxCell>
                <mxCell id="4GAbQzwLdec4f1wNTf0m-4" value="TaskElement" style="swimlane;fontStyle=1;align=center;verticalAlign=top;childLayout=stackLayout;horizontal=1;startSize=26;horizontalStack=0;resizeParent=1;resizeParentMax=0;resizeLast=0;collapsible=1;marginBottom=0;" parent="rhlbqimN3HDKiPcZjt1G-1" vertex="1">
                    <mxGeometry x="400.64" y="360" width="160" height="140" as="geometry"/>
                </mxCell>
                <mxCell id="4GAbQzwLdec4f1wNTf0m-5" value="+ field: type" style="text;strokeColor=none;fillColor=none;align=left;verticalAlign=top;spacingLeft=4;spacingRight=4;overflow=hidden;rotatable=0;points=[[0,0.5],[1,0.5]];portConstraint=eastwest;" parent="4GAbQzwLdec4f1wNTf0m-4" vertex="1">
                    <mxGeometry y="26" width="160" height="26" as="geometry"/>
                </mxCell>
                <mxCell id="4GAbQzwLdec4f1wNTf0m-6" value="" style="line;strokeWidth=1;fillColor=none;align=left;verticalAlign=middle;spacingTop=-1;spacingLeft=3;spacingRight=3;rotatable=0;labelPosition=right;points=[];portConstraint=eastwest;" parent="4GAbQzwLdec4f1wNTf0m-4" vertex="1">
                    <mxGeometry y="52" width="160" height="8" as="geometry"/>
                </mxCell>
                <mxCell id="4GAbQzwLdec4f1wNTf0m-7" value="textBoxInactive()&#10;textBoxActive()&#10;camera()&#10;surveyInactive()&#10;surveyActive()" style="text;strokeColor=none;fillColor=none;align=left;verticalAlign=top;spacingLeft=4;spacingRight=4;overflow=hidden;rotatable=0;points=[[0,0.5],[1,0.5]];portConstraint=eastwest;" parent="4GAbQzwLdec4f1wNTf0m-4" vertex="1">
                    <mxGeometry y="60" width="160" height="80" as="geometry"/>
                </mxCell>
                <mxCell id="4GAbQzwLdec4f1wNTf0m-12" value="Progress" style="swimlane;fontStyle=1;align=center;verticalAlign=top;childLayout=stackLayout;horizontal=1;startSize=26;horizontalStack=0;resizeParent=1;resizeParentMax=0;resizeLast=0;collapsible=1;marginBottom=0;" parent="rhlbqimN3HDKiPcZjt1G-1" vertex="1">
                    <mxGeometry x="400.64" y="200" width="160" height="140" as="geometry"/>
                </mxCell>
                <mxCell id="4GAbQzwLdec4f1wNTf0m-13" value="+ field: type" style="text;strokeColor=none;fillColor=none;align=left;verticalAlign=top;spacingLeft=4;spacingRight=4;overflow=hidden;rotatable=0;points=[[0,0.5],[1,0.5]];portConstraint=eastwest;" parent="4GAbQzwLdec4f1wNTf0m-12" vertex="1">
                    <mxGeometry y="26" width="160" height="26" as="geometry"/>
                </mxCell>
                <mxCell id="4GAbQzwLdec4f1wNTf0m-14" value="" style="line;strokeWidth=1;fillColor=none;align=left;verticalAlign=middle;spacingTop=-1;spacingLeft=3;spacingRight=3;rotatable=0;labelPosition=right;points=[];portConstraint=eastwest;" parent="4GAbQzwLdec4f1wNTf0m-12" vertex="1">
                    <mxGeometry y="52" width="160" height="8" as="geometry"/>
                </mxCell>
                <mxCell id="4GAbQzwLdec4f1wNTf0m-15" value="progressBar()" style="text;strokeColor=none;fillColor=none;align=left;verticalAlign=top;spacingLeft=4;spacingRight=4;overflow=hidden;rotatable=0;points=[[0,0.5],[1,0.5]];portConstraint=eastwest;" parent="4GAbQzwLdec4f1wNTf0m-12" vertex="1">
                    <mxGeometry y="60" width="160" height="80" as="geometry"/>
                </mxCell>
                <mxCell id="rqe2U-CVQ6_cmbee-0Rs-0" value="Action" style="swimlane;fontStyle=1;align=center;verticalAlign=top;childLayout=stackLayout;horizontal=1;startSize=26;horizontalStack=0;resizeParent=1;resizeParentMax=0;resizeLast=0;collapsible=1;marginBottom=0;" parent="rhlbqimN3HDKiPcZjt1G-1" vertex="1">
                    <mxGeometry x="640" y="720" width="160" height="120" as="geometry"/>
                </mxCell>
                <mxCell id="rqe2U-CVQ6_cmbee-0Rs-1" value="+ field: type" style="text;strokeColor=none;fillColor=none;align=left;verticalAlign=top;spacingLeft=4;spacingRight=4;overflow=hidden;rotatable=0;points=[[0,0.5],[1,0.5]];portConstraint=eastwest;" parent="rqe2U-CVQ6_cmbee-0Rs-0" vertex="1">
                    <mxGeometry y="26" width="160" height="26" as="geometry"/>
                </mxCell>
                <mxCell id="rqe2U-CVQ6_cmbee-0Rs-2" value="" style="line;strokeWidth=1;fillColor=none;align=left;verticalAlign=middle;spacingTop=-1;spacingLeft=3;spacingRight=3;rotatable=0;labelPosition=right;points=[];portConstraint=eastwest;" parent="rqe2U-CVQ6_cmbee-0Rs-0" vertex="1">
                    <mxGeometry y="52" width="160" height="8" as="geometry"/>
                </mxCell>
                <mxCell id="rqe2U-CVQ6_cmbee-0Rs-3" value="click()" style="text;strokeColor=none;fillColor=none;align=left;verticalAlign=top;spacingLeft=4;spacingRight=4;overflow=hidden;rotatable=0;points=[[0,0.5],[1,0.5]];portConstraint=eastwest;" parent="rqe2U-CVQ6_cmbee-0Rs-0" vertex="1">
                    <mxGeometry y="60" width="160" height="60" as="geometry"/>
                </mxCell>
                <mxCell id="rqe2U-CVQ6_cmbee-0Rs-5" value="Extends" style="endArrow=block;endSize=16;endFill=0;html=1;exitX=0;exitY=0.5;exitDx=0;exitDy=0;entryX=1;entryY=0.5;entryDx=0;entryDy=0;" parent="rhlbqimN3HDKiPcZjt1G-1" source="rqe2U-CVQ6_cmbee-0Rs-3" target="tRXYYjkocbcyxQh3FJ96-11" edge="1">
                    <mxGeometry width="160" relative="1" as="geometry">
                        <mxPoint x="50.639999999999986" y="510" as="sourcePoint"/>
                        <mxPoint x="210.64" y="510" as="targetPoint"/>
                    </mxGeometry>
                </mxCell>
                <mxCell id="rqe2U-CVQ6_cmbee-0Rs-14" value="" style="endArrow=diamondThin;endFill=1;endSize=24;html=1;entryX=1;entryY=0.5;entryDx=0;entryDy=0;elbow=vertical;exitX=0.009;exitY=0.389;exitDx=0;exitDy=0;exitPerimeter=0;" parent="rhlbqimN3HDKiPcZjt1G-1" source="4GAbQzwLdec4f1wNTf0m-7" target="QToW42FV7lgDJAnpMxoy-3" edge="1">
                    <mxGeometry width="160" relative="1" as="geometry">
                        <mxPoint x="370" y="350" as="sourcePoint"/>
                        <mxPoint x="214.95999999999992" y="149.20000000000005" as="targetPoint"/>
                    </mxGeometry>
                </mxCell>
                <mxCell id="TAVogBiq3OFMNbPsW0Xf-0" value="" style="endArrow=diamondThin;endFill=1;endSize=24;html=1;entryX=1;entryY=0.5;entryDx=0;entryDy=0;elbow=vertical;exitX=0;exitY=0.5;exitDx=0;exitDy=0;" edge="1" parent="rhlbqimN3HDKiPcZjt1G-1" source="4GAbQzwLdec4f1wNTf0m-15">
                    <mxGeometry width="160" relative="1" as="geometry">
                        <mxPoint x="400.63999999999993" y="451.1199999999999" as="sourcePoint"/>
                        <mxPoint x="199.19999999999987" y="450" as="targetPoint"/>
                        <Array as="points">
                            <mxPoint x="320" y="300"/>
                            <mxPoint x="320" y="450"/>
                        </Array>
                    </mxGeometry>
                </mxCell>
                <mxCell id="TAVogBiq3OFMNbPsW0Xf-1" value="" style="endArrow=diamondThin;endFill=1;endSize=24;html=1;entryX=1;entryY=0.5;entryDx=0;entryDy=0;elbow=vertical;exitX=0;exitY=0.5;exitDx=0;exitDy=0;" edge="1" parent="rhlbqimN3HDKiPcZjt1G-1" source="tRXYYjkocbcyxQh3FJ96-7">
                    <mxGeometry width="160" relative="1" as="geometry">
                        <mxPoint x="402.07999999999987" y="300" as="sourcePoint"/>
                        <mxPoint x="200.63999999999982" y="450" as="targetPoint"/>
                        <Array as="points">
                            <mxPoint x="320" y="620"/>
                            <mxPoint x="321.44" y="450"/>
                        </Array>
                    </mxGeometry>
                </mxCell>
                <mxCell id="TAVogBiq3OFMNbPsW0Xf-2" value="" style="endArrow=diamondThin;endFill=1;endSize=24;html=1;entryX=1;entryY=0.5;entryDx=0;entryDy=0;elbow=vertical;exitX=0.004;exitY=0.533;exitDx=0;exitDy=0;exitPerimeter=0;" edge="1" parent="rhlbqimN3HDKiPcZjt1G-1" source="tRXYYjkocbcyxQh3FJ96-11">
                    <mxGeometry width="160" relative="1" as="geometry">
                        <mxPoint x="400.6399999999999" y="620" as="sourcePoint"/>
                        <mxPoint x="200.63999999999987" y="450" as="targetPoint"/>
                        <Array as="points">
                            <mxPoint x="321" y="815"/>
                            <mxPoint x="321.44" y="450"/>
                        </Array>
                    </mxGeometry>
                </mxCell>
                <mxCell id="TAVogBiq3OFMNbPsW0Xf-3" value="" style="endArrow=diamondThin;endFill=1;endSize=24;html=1;entryX=1;entryY=0.5;entryDx=0;entryDy=0;elbow=vertical;exitX=0;exitY=0.5;exitDx=0;exitDy=0;" edge="1" parent="rhlbqimN3HDKiPcZjt1G-1" source="tRXYYjkocbcyxQh3FJ96-3">
                    <mxGeometry width="160" relative="1" as="geometry">
                        <mxPoint x="402.07999999999987" y="300" as="sourcePoint"/>
                        <mxPoint x="200.63999999999982" y="450" as="targetPoint"/>
                        <Array as="points">
                            <mxPoint x="321" y="140"/>
                            <mxPoint x="321" y="290"/>
                            <mxPoint x="321.44" y="450"/>
                        </Array>
                    </mxGeometry>
                </mxCell>
            </root>
        </mxGraphModel>
    </diagram>
</mxfile>